<svg width="18" height="18" viewBox="0 0 18 18" fill="none" xmlns="http://www.w3.org/2000/svg">
<path fill-rule="evenodd" clip-rule="evenodd" d="M3.375 15.7499H6.51705L6.51797 15.7499C6.51797 15.7499 6.73959 15.7503 6.94466 15.6661C6.94466 15.6661 7.15064 15.5815 7.30848 15.4245L15.747 6.98597C15.747 6.98597 15.9049 6.83041 15.9922 6.62193C15.9922 6.62193 16.0795 6.41345 16.0795 6.18744C16.0795 6.18744 16.0795 5.96142 15.9922 5.75295C15.9922 5.75295 15.9049 5.54447 15.7439 5.38588L12.611 2.25297C12.611 2.25297 12.4555 2.09499 12.247 2.0077C12.247 2.0077 12.0385 1.92041 11.8125 1.92041C11.8125 1.92041 11.5865 1.92041 11.378 2.0077C11.378 2.0077 11.1695 2.09499 11.0109 2.25603L2.57647 10.6905C2.57647 10.6905 2.41842 10.8493 2.33382 11.0553C2.33382 11.0553 2.24922 11.2613 2.25001 11.4839L2.25 14.6249C2.25 14.6249 2.25 15.0909 2.57951 15.4204C2.57951 15.4204 2.90901 15.7499 3.375 15.7499ZM14.9515 6.19047L6.51701 14.6249H3.375L3.375 11.4829L11.8125 3.04541L11.8155 3.04847L14.9545 6.18744L14.9515 6.19047Z" fill="black" fill-opacity="0.4"/>
<path d="M13.102 8.83496C13.2074 8.94045 13.3508 9 13.5 9C13.6492 9 13.7923 8.94074 13.8977 8.83525C14.0032 8.72976 14.0625 8.58668 14.0625 8.4375C14.0625 8.28832 14.0032 8.14524 13.8977 8.03975L9.96031 4.10232C9.85476 3.99676 9.71168 3.9375 9.5625 3.9375C9.41331 3.9375 9.27024 3.99676 9.16475 4.10225C9.05926 4.20774 9 4.35082 9 4.5C9 4.64918 9.05926 4.79226 9.16475 4.89775L13.102 8.83496Z" fill="black" fill-opacity="0.4"/>
</svg>
